<svg height="512" viewBox="0 0 512 512" width="512" xmlns="http://www.w3.org/2000/svg" data-name="Layer 1"><path d="M210.115 195.552c-12.494-21.744-12.73-46.176-.661-67.073L265.792 50.2l-9.986-13.914-66.352 92.2c-12.069 20.9-11.833 45.329.661 67.073a76.115 76.115 0 0065.7 38.324 74.343 74.343 0 0010-.676 76.347 76.347 0 01-55.7-37.655z" fill="#d4e1f4"/><path d="M239.824 357.955a5.856 5.856 0 00-6.22.615l-9.127 7.016a30.716 30.716 0 01-.511-4.175l-.717-12.535a5.775 5.775 0 00-.044-.491 68.408 68.408 0 00-45.427-55.264l-4.073-1.418a39 39 0 01-14.674-9.2l-19.65-19.651-6.712-22.712a31.7 31.7 0 00-26.769-23.185l-.95-3.173a7.901 7.901 0 00-.046-.143c-3.212-9.816-13.708-16.212-24.554-15.8l-.139-.463A28.658 28.658 0 0045.8 177.749a6 6 0 00-4.452 6.919l21.7 116.8a6.05 6.05 0 00.215.824 75.069 75.069 0 0028.182 37.438l47.4 32.66c.1.073.213.142.323.208a14.994 14.994 0 016.714 8.679l7.936 35.215a5.939 5.939 0 001.117 2.332l-8.806 6.9A5.809 5.809 0 00144 430.5V486a5.809 5.809 0 002.941 5.284 5.584 5.584 0 002.734.716 5.826 5.826 0 003.254-.994l87.571-57.989a5.826 5.826 0 002.5-5.006v-64.676a5.852 5.852 0 00-3.176-5.38zM121.1 243.308c.014.053.029.105.045.157l1.675 5.671a33.906 33.906 0 00-8.049-2.608l-4.856-16.2a19.683 19.683 0 0111.185 12.98zm-27.614-26l8.743 29.17a34.024 34.024 0 00-6.735 1.952l-.12-.387-11.364-37.97c4.366.81 8.227 3.535 9.471 7.236zm64.077 161.163c-.024-.1-.05-.209-.079-.313a26.953 26.953 0 00-11.967-15.749l-47.244-32.546a63 63 0 01-23.5-31.012L54.356 188.976a16.675 16.675 0 0114.36 11.842l15.173 50.721 1.129 3.646c-.239.226-.481.446-.715.68a6 6 0 00.2 8.672l23.748 21.692a153.216 153.216 0 0118.783 20.6 6 6 0 009.568-7.242 165.25 165.25 0 00-20.258-22.22L97.91 260.535a22.049 22.049 0 0126 3.814l26.636 26.636a51.085 51.085 0 0019.216 12.052l4.075 1.418a56.457 56.457 0 0137.457 45.369l.714 12.282a42.581 42.581 0 002.229 11.348l-49.307 37.732zM231 424.784l-75 50.061v-41.384l75-57.98zm235.2-247.035a28.656 28.656 0 00-34.41 19.63l-.139.463c-10.844-.415-21.342 5.981-24.554 15.8a7.901 7.901 0 00-.046.143l-.95 3.173a31.7 31.7 0 00-26.767 23.183l-6.712 22.712-19.654 19.647a39 39 0 01-14.674 9.2l-4.075 1.418a68.411 68.411 0 00-45.429 55.264c-.023.163-.04.327-.049.491l-.728 12.535a30.743 30.743 0 01-.532 4.175l-9.168-7.016a5.711 5.711 0 00-6.137-.615 5.852 5.852 0 00-3.176 5.38v64.676a5.849 5.849 0 002.526 5.006l87.682 57.989a5.87 5.87 0 003.267.994 5.112 5.112 0 002.6-.716A5.79 5.79 0 00368 486v-55.5a5.809 5.809 0 00-2.137-4.765l-8.915-6.9a6.021 6.021 0 001.172-2.332l7.963-35.215a15.015 15.015 0 016.727-8.679c.111-.066.225-.135.331-.208l47.419-32.669a75.071 75.071 0 0028.17-37.432 6.05 6.05 0 00.215-.824l21.7-116.8a6 6 0 00-4.445-6.927zm-47.678 39.56c1.244-3.7 5.105-6.424 9.47-7.235l-11.344 37.916-.137.441a33.89 33.89 0 00-6.735-1.952zm-27.614 26a19.683 19.683 0 0111.185-12.981l-4.856 16.2a33.951 33.951 0 00-8.049 2.608l1.675-5.67c.013-.053.028-.105.042-.158zM356 474.845l-75-50.061v-49.3l75 57.98zm81.228-175.994a62.986 62.986 0 01-23.487 31l-47.254 32.559a26.956 26.956 0 00-11.966 15.749c-.029.1-.055.208-.079.313l-7.372 32.714-49.307-37.732a42.581 42.581 0 002.229-11.348l.714-12.282a56.457 56.457 0 0137.457-45.369l4.075-1.418a51.085 51.085 0 0019.216-12.052l26.636-26.635a22.045 22.045 0 0126-3.815l-18.43 16.834a165.25 165.25 0 00-20.258 22.22 6 6 0 109.568 7.242 153.216 153.216 0 0118.783-20.6l23.747-21.694a6 6 0 00.2-8.672c-.234-.234-.476-.454-.715-.68l1.146-3.7 15.156-50.667a16.674 16.674 0 0114.36-11.841z" fill="#0635c9"/><g fill="#1ae5be"><path d="M332.088 121.986l-71.4-99.486a6 6 0 00-4.871-2.5 6 6 0 00-4.87 2.5l-71.4 99.213a5.868 5.868 0 00-.314.483c-14.223 24.4-14.042 54.06.482 79.339a87.493 87.493 0 00152.284-.1c14.451-25.219 14.6-54.744.4-78.981q-.149-.243-.311-.468zm-10.506 73.479a75.493 75.493 0 01-131.467.087c-12.494-21.744-12.73-46.176-.661-67.073l66.352-92.2 66.368 92.471c12.041 20.736 11.831 45.037-.592 66.715z"/><path d="M298.6 153.639a6 6 0 00-6 6 37.258 37.258 0 01-37.331 37.1 6 6 0 000 12 49.272 49.272 0 0049.331-49.1 6 6 0 00-6-6z"/></g></svg>